<?xml version="1.0" ?><!DOCTYPE svg  PUBLIC '-//W3C//DTD SVG 1.1//EN'  'http://www.w3.org/Graphics/SVG/1.1/DTD/svg11.dtd' [
	<!ENTITY stroke_color "#666666">
	<!ENTITY fill_color "#ffffff">
]><svg enable-background="new 0 0 55 55" height="55px" id="svg19" version="1.1" viewBox="0 0 55 55" width="55px" x="0px" xml:space="preserve" xmlns="http://www.w3.org/2000/svg" xmlns:cc="http://creativecommons.org/ns#" xmlns:dc="http://purl.org/dc/elements/1.1/" xmlns:rdf="http://www.w3.org/1999/02/22-rdf-syntax-ns#" xmlns:svg="http://www.w3.org/2000/svg" y="0px"><metadata id="metadata25"><rdf:RDF><cc:Work rdf:about=""><dc:format>image/svg+xml</dc:format><dc:type rdf:resource="http://purl.org/dc/dcmitype/StillImage"/><dc:title/></cc:Work></rdf:RDF></metadata><defs id="defs23"/><g id="g4571" transform="translate(0.49957582,-0.43288123)"><path d="m 5.821208,25.350799 2.3898837,-3.590363 c 0,0 -0.4654291,-4.591472 -0.4527488,-6.89458 0.00726,-1.318801 -0.09641,-2.687889 0.3027081,-3.944867 0.5240593,-1.6504643 1.3839151,-3.2934657 2.663461,-4.4602702 1.931339,-1.7611678 4.506789,-2.8903881 7.073531,-3.3839623 2.276271,-0.4377178 4.715016,-0.1940678 6.938664,0.4604516 2.250062,0.662294 4.471921,1.7773338 6.153901,3.4120674 0.522542,0.5078636 1.035264,1.684911 1.114056,1.8808662 0.07879,0.1959542 2.940768,3.3874063 2.940768,3.3874063 l 4.761816,0.817397 -1.777498,5.06944 -3.603859,4.604809 -5.05996,2.935392 L 14.016814,25.809814 7.6589766,25.704348 5.821208,25.350799" id="path4552" style="fill:&fill_color;;fill-opacity:1;stroke:&stroke_color;;stroke-width:1.5;stroke-linecap:butt;stroke-linejoin:miter;stroke-miterlimit:4;stroke-dasharray:none;stroke-opacity:1"/><path d="M 10.296106,25.412362 16.633403,11.945592 10.753289,6.4579333 C 9.3297975,8.117085 7.9598364,10.67661 7.6254069,11.96581 c -0.4513932,1.736261 0,7.68928 0.5856848,9.794626 L 5.821208,25.350799 Z" id="path31" style="fill:none;stroke:&stroke_color;;stroke-width:1.5;stroke-linecap:round;stroke-linejoin:round;stroke-miterlimit:4;stroke-dasharray:none"/><path d="m 34.92263,27.744593 c 0,0 1.333691,5.228295 0.912011,7.820077 -0.458629,2.818885 -1.579529,5.757734 -3.648047,7.820078 -1.87853,1.872924 -2.921872,2.576808 -5.47207,3.47559 -1.175584,0.414318 -4.530992,0.868897 -5.934454,0.868897 -1.403465,0 -4.758872,-0.45458 -5.934455,-0.868898 C 12.295417,45.961555 11.252074,45.257671 9.3735433,43.384747 7.3050259,41.322403 6.1841257,38.383554 5.7254961,35.564669 5.3038168,32.972887 6.6375077,27.744592 6.6375077,27.744592 M 18.49366,22.531207 c 0,0 -3.7554,4.286941 -6.384082,5.213385 -1.710725,0.602921 -3.8280728,0.752793 -5.4720703,0 C 4.8830522,26.94122 3.3727889,25.218343 2.98946,23.400104 2.5536289,21.332836 3.4986824,19.643452 5.2401244,18.363033 c 1.8834274,-1.384818 4.1892191,-1.514927 5.9574416,-2.783007 2.291365,-1.643249 2.653218,-4.910211 4.560059,-6.9511794 1.29423,-1.3852658 5.022444,-3.47559 5.022444,-3.47559 0,0 3.728212,2.0903241 5.022442,3.4755899 1.90684,2.0409685 2.268695,5.3079315 4.560059,6.9511805 1.768224,1.26808 4.134964,1.335134 6.018392,2.666872 1.764881,1.247914 2.625547,3.085938 2.189715,5.153206 -0.383329,1.818238 -1.893593,3.541116 -3.648047,4.344488 -1.643998,0.752793 -3.761345,0.602921 -5.472071,0 -2.628683,-0.926444 -6.384082,-5.213385 -6.384082,-5.213385" id="path4505-6" style="fill:none;fill-opacity:1"/><path d="m 21.341558,47.72218 c 0,0 0.658785,2.845885 5.010806,3.343455 4.352024,0.49757 10.736105,-3.442556 13.472142,-8.655941 2.736036,-5.213385 2.188902,-10.46838 2.736035,-16.509054" id="path4653" style="fill:none;fill-opacity:1"/><g id="g4484" style="stroke-width:1.5;stroke-miterlimit:4;stroke-dasharray:none" transform="matrix(1.5207743,0,0,1.5207743,-46.918634,-26.857363)"><circle cx="45.5" cy="45.5" display="inline" fill="#FFFFFF" id="circle2" r="6.8938484" stroke="#010101" stroke-width="3.5" style="fill:#e0e0e0;fill-opacity:1;stroke-width:1.5;stroke-miterlimit:4;stroke-dasharray:none"/><path d="m 45.500346,38.606498 c 0,0 -3.881102,2.907449 -3.881102,6.919134 0,4.01203 3.881102,6.868217 3.881102,6.868217" fill="#FFFFFF" id="path4" stroke="#010101" stroke-width="3.5" style="fill:none;stroke-width:1.5;stroke-miterlimit:4;stroke-dasharray:none"/><path d="m 45.500346,38.606498 c 0,0 3.832956,3.166189 3.832956,6.919134 0,3.754329 -3.832956,6.868217 -3.832956,6.868217" fill="#FFFFFF" id="path6" stroke="#010101" stroke-width="3.5" style="fill:none;stroke-width:1.5;stroke-miterlimit:4;stroke-dasharray:none"/><line fill="#FFFFFF" id="line8" stroke="#010101" stroke-width="3.5" style="stroke-width:1.5;stroke-miterlimit:4;stroke-dasharray:none" x1="45.500347" x2="45.500347" y1="38.606499" y2="52.393501"/><line fill="#FFFFFF" id="line10" stroke="#010101" stroke-width="3.5" style="stroke-width:1.5;stroke-miterlimit:4;stroke-dasharray:none" x1="45.500347" x2="45.500347" y1="38.606499" y2="52.393501"/><line fill="#FFFFFF" id="line12" stroke="#010101" stroke-width="3.5" style="stroke-width:1.5;stroke-miterlimit:4;stroke-dasharray:none" x1="45.500347" x2="45.500347" y1="38.606499" y2="52.393501"/><line fill="#FFFFFF" id="line14" stroke="#010101" stroke-width="3.5" style="stroke-width:1.5;stroke-miterlimit:4;stroke-dasharray:none" x1="38.606152" x2="52.393848" y1="45.5" y2="45.5"/></g><path d="m 51.327375,17.233508 c -0.195806,-1.444285 -0.639402,-3.706449 -2.276893,-4.48794 -1.037945,-0.494713 -5.475634,0.239992 -9.343234,0.289377 0.135158,2.327144 -1.121969,3.25527 -4.078985,7.608053 -3.656198,5.380329 -10.752877,5.095936 -11.116764,5.076008 L 2.649737,25.642077 c 1.0933936,1.541322 3.4473443,3.518262 6.0482703,3.845761 -0.6974502,0.615142 -2.897234,3.064448 -3.0609832,6.24846 -0.00433,0.07105 0.00173,0.382948 0,0.382948 h 6.9528419 c 0.238259,-1.732796 0.912317,-4.931536 2.708359,-6.092509 1.339451,-0.0078 2.561072,-0.155952 3.514109,-0.1083 2.199784,0.109166 6.652202,-0.04419 9.646473,-0.258186 0.02253,0.01213 0.03639,0.255587 0.05978,0.269449 1.957193,1.035346 2.668505,4.457617 2.917161,6.190412 h 6.952842 c -8.66e-4,0 0.0052,-0.311903 8.66e-4,-0.382948 -0.162016,-3.144157 -2.940553,-6.143626 -3.877996,-7.026485 2.65291,-1.179167 6.661732,-5.105682 7.709207,-6.245861 0.275515,-0.298041 1.30133,-1.569913 2.081954,-2.153865 0.732106,-0.546697 3.121631,-0.836074 4.018353,-0.875062 0.898454,-0.03899 2.809727,0.381215 2.809727,0.381215 0,0 0.286778,-1.926868 0.196673,-2.583598 z" id="path9" style="fill:#ffffff;stroke:&stroke_color;;stroke-width:1.5;stroke-linecap:round;stroke-linejoin:round;stroke-miterlimit:4;stroke-dasharray:none"/><path d="M 15.542549,11.979672 28.190223,11.666903 31.309255,7.8278944 C 30.439392,6.5733505 29.295747,5.3577945 27.833268,4.6265548 23.47702,2.4475645 19.563501,1.6236202 13.86607,4.3553723 12.554344,4.9852434 11.536326,5.7052199 10.724512,6.4607188 Z" id="path17" style="fill:none;stroke:&stroke_color;;stroke-width:1.5;stroke-linecap:round;stroke-linejoin:round;stroke-miterlimit:4;stroke-dasharray:none"/><path d="M 27.468089,11.907313 15.979613,12.14817 9.716891,25.757996 24.511499,25.719006 c 0.08231,0.0052 4.447219,0.172413 8.060098,-1.674747 z" id="path19" style="fill:none;stroke:&stroke_color;;stroke-width:1.5;stroke-linecap:round;stroke-linejoin:round;stroke-miterlimit:4;stroke-dasharray:none"/><circle cx="45.649002" cy="15.451329" id="circle27" r="1.2805359" style="fill:#ffffff;stroke:&stroke_color;;stroke-width:1.29959655;stroke-linecap:round;stroke-linejoin:round"/><path d="m 34.945432,12.217548 c 0,0 -2.802492,-3.0255251 -3.636177,-4.3896536 l -3.841166,4.0794186 5.103508,12.136946 c 0.907985,-0.594349 2.943062,-3.006744 3.585063,-3.95285 1.820845,-2.300626 3.682281,-4.80383 3.550588,-7.056464 -2.801063,0.05112 -4.761816,-0.817397 -4.761816,-0.817397 z" id="path37" style="fill:none;stroke:&stroke_color;;stroke-width:1.5;stroke-linecap:round;stroke-linejoin:round;stroke-miterlimit:4;stroke-dasharray:none"/></g></svg>