<?xml version="1.0" ?><!DOCTYPE svg  PUBLIC '-//W3C//DTD SVG 1.1//EN'  'http://www.w3.org/Graphics/SVG/1.1/DTD/svg11.dtd' [
	<!ENTITY stroke_color "#666666">
	<!ENTITY fill_color "#ffffff">
]><svg enable-background="new 0 0 55 55" height="55px" id="svg19" version="1.1" viewBox="0 0 55 55" width="55px" x="0px" xml:space="preserve" xmlns="http://www.w3.org/2000/svg" xmlns:cc="http://creativecommons.org/ns#" xmlns:dc="http://purl.org/dc/elements/1.1/" xmlns:rdf="http://www.w3.org/1999/02/22-rdf-syntax-ns#" xmlns:svg="http://www.w3.org/2000/svg" y="0px"><metadata id="metadata25"><rdf:RDF><cc:Work rdf:about=""><dc:format>image/svg+xml</dc:format><dc:type rdf:resource="http://purl.org/dc/dcmitype/StillImage"/><dc:title/></cc:Work></rdf:RDF></metadata><defs id="defs23"/><path d="m 21.237862,7.4448023 c 0,0 -1.143011,-0.911024 -1.822048,-0.911024 -1.358075,0 -2.683793,0.8617444 -3.644096,1.822048 -1.440457,1.4404556 -1.541952,3.8135527 -2.733072,5.4661437 -0.753331,1.045191 -1.687883,1.979742 -2.733072,2.733073 -1.6525906,1.19112 -4.0256879,1.292616 -5.4661435,2.733072 -0.9603045,0.960304 -1.8220485,2.286021 -1.8220485,3.644096 0,1.358074 1.0722152,3.225172 1.8220485,3.644096 2.3642249,1.320864 0.7621709,0.59081 1.8220481,1.822048 0,0 -0.9478604,3.007115 -0.9110241,4.55512 0.059572,2.503457 1.8220472,6.377168 1.8220472,7.288192 0,0.911024 3.2996663,4.07112 5.4661443,5.466144 2.18147,1.404678 4.850087,1.875885 7.438321,2.057491 2.792876,0.195964 5.444687,-0.324658 7.898958,-1.671919 1.50587,-0.826642 2.751505,-1.753463 3.794225,-3.118644 1.486104,-1.945683 3.015696,-4.010883 3.644096,-6.377168 0.389717,-1.467508 0.18552,-3.048123 0,-4.55512 -0.152983,-1.242702 -1.158869,-2.416788 -0.911024,-3.644096 0.300555,-1.488329 2.113317,-2.257964 2.733072,-3.644096 0.632028,-1.413583 1.537453,-3.139047 0.911024,-4.55512 C 37.83097,18.579797 35.48847,18.412954 33.992198,17.466067 33.066982,16.880561 32.073544,16.375839 31.259126,15.644019 29.494955,14.058768 28.123024,12.078322 26.704006,10.177874 26.048925,9.3005449 25.752094,8.1094086 24.881957,7.4448023 24.118798,6.8619041 23.0835,6.3131458 22.148885,6.5337783 c -0.417972,0.09867 -0.911024,0.911024 -0.911024,0.911024" id="path4725" style="fill:&fill_color;;fill-opacity:1;stroke:&stroke_color;;stroke-width:0.91102403px;stroke-linecap:butt;stroke-linejoin:miter;stroke-miterlimit:4;stroke-dasharray:none;stroke-opacity:1"/><path d="m 34.92263,27.744593 c 0,0 1.333691,5.228295 0.912011,7.820077 -0.458629,2.818885 -1.579529,5.757734 -3.648047,7.820078 -1.87853,1.872924 -2.921872,2.576808 -5.47207,3.47559 -1.175584,0.414318 -4.530992,0.868897 -5.934454,0.868897 -1.403465,0 -4.758872,-0.45458 -5.934455,-0.868898 C 12.295417,45.961555 11.252074,45.257671 9.3735433,43.384747 7.3050259,41.322403 6.1841257,38.383554 5.7254961,35.564669 5.3038168,32.972887 6.6375077,27.744592 6.6375077,27.744592 M 18.49366,22.531207 c 0,0 -3.7554,4.286941 -6.384082,5.213385 -1.710725,0.602921 -3.8280728,0.752793 -5.4720703,0 C 4.8830522,26.94122 3.3727889,25.218343 2.98946,23.400104 2.5536289,21.332836 3.4986824,19.643452 5.2401244,18.363033 c 1.8834274,-1.384818 4.1892191,-1.514927 5.9574416,-2.783007 2.291365,-1.643249 2.653218,-4.910211 4.560059,-6.9511794 1.29423,-1.3852658 5.022444,-3.47559 5.022444,-3.47559 0,0 3.728212,2.0903241 5.022442,3.4755899 1.90684,2.0409685 2.268695,5.3079315 4.560059,6.9511805 1.768224,1.26808 4.134964,1.335134 6.018392,2.666872 1.764881,1.247914 2.625547,3.085938 2.189715,5.153206 -0.383329,1.818238 -1.893593,3.541116 -3.648047,4.344488 -1.643998,0.752793 -3.761345,0.602921 -5.472071,0 -2.628683,-0.926444 -6.384082,-5.213385 -6.384082,-5.213385" id="path4505-6" style="fill:none;fill-opacity:1;stroke:&stroke_color;;stroke-width:1.7803874;stroke-linecap:round;stroke-linejoin:miter;stroke-miterlimit:4;stroke-dasharray:none;stroke-opacity:1"/><g id="g4553" style="fill:none;fill-opacity:1;stroke:&stroke_color;;stroke-width:1.99999976;stroke-miterlimit:4;stroke-dasharray:none;stroke-opacity:1" transform="matrix(0.91201184,0,0,0.86889751,45.11896,6.1311861)"><path d="M -30.228157,8.514322 C -33.422908,9.40349 -38.624018,5.874516 -40.102591,4.585664" id="path3411-7" style="fill:none;fill-opacity:1;fill-rule:evenodd;stroke:&stroke_color;;stroke-width:1.93205309;stroke-linecap:butt;stroke-linejoin:miter;stroke-miterlimit:4;stroke-dasharray:none;stroke-opacity:1"/><path d="M -29.760199,5.904536 C -33.101366,5.473905 -35.931474,3.7361852 -37.633646,2.3416285" id="path3413-5" style="fill:none;fill-opacity:1;fill-rule:evenodd;stroke:&stroke_color;;stroke-width:1.93205309;stroke-linecap:butt;stroke-linejoin:miter;stroke-miterlimit:4;stroke-dasharray:none;stroke-opacity:1"/></g><g id="g4557" style="fill:none;fill-opacity:1;stroke:&stroke_color;;stroke-width:1.99999976;stroke-miterlimit:4;stroke-dasharray:none;stroke-opacity:1" transform="matrix(0.91201184,0,0,0.86889751,45.11896,7.0000836)"><path d="m -23.145912,7.514322 c 3.194751,0.889168 8.395861,-2.639806 9.874434,-3.928658" id="path3411-3" style="fill:none;fill-opacity:1;fill-rule:evenodd;stroke:&stroke_color;;stroke-width:1.93205309;stroke-linecap:butt;stroke-linejoin:miter;stroke-miterlimit:4;stroke-dasharray:none;stroke-opacity:1"/><path d="m -23.61387,4.904536 c 3.341167,-0.430631 6.171275,-2.168351 7.873447,-3.5629075" id="path3413-56" style="fill:none;fill-opacity:1;fill-rule:evenodd;stroke:&stroke_color;;stroke-width:1.93205309;stroke-linecap:butt;stroke-linejoin:miter;stroke-miterlimit:4;stroke-dasharray:none;stroke-opacity:1"/></g><ellipse cx="17.47694" cy="17.959148" id="circle3409-2" rx="1.7188114" ry="1.7956908" style="fill:none;fill-opacity:1;fill-rule:evenodd;stroke:&stroke_color;;stroke-width:1.78038716;stroke-linecap:butt;stroke-linejoin:miter;stroke-miterlimit:4;stroke-dasharray:none;stroke-opacity:1"/><ellipse cx="24.083197" cy="18.034357" id="ellipse4229-9" rx="1.7188114" ry="1.7956908" style="fill:none;fill-opacity:1;fill-rule:evenodd;stroke:&stroke_color;;stroke-width:1.78038716;stroke-linecap:butt;stroke-linejoin:miter;stroke-miterlimit:4;stroke-dasharray:none;stroke-opacity:1"/><path d="m 11.773953,17.969496 c -13.0782716,2.389538 -4.3871453,13.61725 3.990052,4.561712" id="path4303-1" style="fill:none;fill-opacity:1;fill-rule:evenodd;stroke:&stroke_color;;stroke-width:0.8901937px;stroke-linecap:butt;stroke-linejoin:miter;stroke-miterlimit:4;stroke-dasharray:none;stroke-opacity:1"/><path d="m 29.786186,17.969496 c 13.078272,2.389538 4.387145,13.61725 -3.990052,4.561712" id="path4303-1-2" style="fill:none;fill-opacity:1;fill-rule:evenodd;stroke:&stroke_color;;stroke-width:0.8901937px;stroke-linecap:butt;stroke-linejoin:miter;stroke-miterlimit:4;stroke-dasharray:none;stroke-opacity:1"/><path d="m 23.004662,5.1532574 c -1.261488,1.1971358 -1.809076,2.1676057 -2.240969,2.1676057 -0.603744,0 -1.159533,-0.9704699 -2.240969,-2.1676057 -0.886353,-0.9811817 1.003317,-2.1676065 2.240969,-2.1676065 1.237654,0 3.218636,1.2398134 2.240969,2.1676065 z" id="path4227-7" style="fill:&stroke_color;;fill-opacity:1;fill-rule:evenodd;stroke:&stroke_color;;stroke-width:1.97130179;stroke-linecap:butt;stroke-linejoin:miter;stroke-miterlimit:4;stroke-dasharray:none;stroke-opacity:1"/><path d="m 21.341558,47.72218 c 0,0 0.658785,2.845885 5.010806,3.343455 4.352024,0.49757 10.736105,-3.442556 13.472142,-8.655941 2.736036,-5.213385 2.188902,-10.46838 2.736035,-16.509054" id="path4653" style="fill:none;fill-opacity:1;stroke:&stroke_color;;stroke-width:1.7803874;stroke-linecap:round;stroke-linejoin:miter;stroke-miterlimit:4;stroke-dasharray:none;stroke-opacity:1"/><g id="g4484" style="stroke-width:1.5;stroke-miterlimit:4;stroke-dasharray:none"><circle cx="45.5" cy="45.5" display="inline" fill="#FFFFFF" id="circle2" r="6.8938484" stroke="#010101" stroke-width="3.5" style="fill:#e0e0e0;fill-opacity:1;stroke-width:1.5;stroke-miterlimit:4;stroke-dasharray:none"/><path d="m 45.500346,38.606498 c 0,0 -3.881102,2.907449 -3.881102,6.919134 0,4.01203 3.881102,6.868217 3.881102,6.868217" fill="#FFFFFF" id="path4" stroke="#010101" stroke-width="3.5" style="stroke-width:1.5;stroke-miterlimit:4;stroke-dasharray:none;fill:none"/><path d="m 45.500346,38.606498 c 0,0 3.832956,3.166189 3.832956,6.919134 0,3.754329 -3.832956,6.868217 -3.832956,6.868217" fill="#FFFFFF" id="path6" stroke="#010101" stroke-width="3.5" style="stroke-width:1.5;stroke-miterlimit:4;stroke-dasharray:none;fill:none"/><line fill="#FFFFFF" id="line8" stroke="#010101" stroke-width="3.5" style="stroke-width:1.5;stroke-miterlimit:4;stroke-dasharray:none" x1="45.500347" x2="45.500347" y1="38.606499" y2="52.393501"/><line fill="#FFFFFF" id="line10" stroke="#010101" stroke-width="3.5" style="stroke-width:1.5;stroke-miterlimit:4;stroke-dasharray:none" x1="45.500347" x2="45.500347" y1="38.606499" y2="52.393501"/><line fill="#FFFFFF" id="line12" stroke="#010101" stroke-width="3.5" style="stroke-width:1.5;stroke-miterlimit:4;stroke-dasharray:none" x1="45.500347" x2="45.500347" y1="38.606499" y2="52.393501"/><line fill="#FFFFFF" id="line14" stroke="#010101" stroke-width="3.5" style="stroke-width:1.5;stroke-miterlimit:4;stroke-dasharray:none" x1="38.606152" x2="52.393848" y1="45.5" y2="45.5"/></g><g id="g4560" transform="matrix(1.2337729,0,0,1.2337729,-7.7648119,-2.7263826)"><path d="m 38.015078,16.357226 c -0.823396,-0.465997 -0.931358,-1.433616 -0.262912,-2.356384 0.780706,-1.077726 2.419939,-1.724034 3.45636,-1.36274 l 0.434839,0.151584 -0.02568,-4.3289919 c -0.02377,-4.012616 -0.0078,-4.328992 0.22395,-4.32897 0.404555,-0.05909 0.252565,0.386433 0.289343,5.17206 l 0.03969,5.1720379 -0.43901,0.57559 c -0.920478,1.206841 -2.753588,1.850872 -3.716684,1.305814 z" id="path4363" style="fill:&stroke_color;;fill-opacity:1;stroke:&stroke_color;;stroke-width:0.14467248;stroke-opacity:1"/><path d="M 45.023099,19.772384 C 44.199703,19.306387 44.091741,18.338768 44.760187,17.416 c 0.780706,-1.077726 2.419939,-1.724034 3.45636,-1.36274 l 0.434839,0.151584 -0.02568,-4.328991 c -0.02377,-4.012616 -0.0078,-4.328992 0.22395,-4.32897 0.404555,-0.05909 0.252565,0.386433 0.289343,5.17206 l 0.03969,5.172037 -0.43901,0.57559 c -0.920478,1.206841 -2.753588,1.850872 -3.716684,1.305814 z" id="path4363-7" style="fill:&stroke_color;;fill-opacity:1;stroke:&stroke_color;;stroke-width:0.14467248;stroke-opacity:1"/><path d="m 42.094341,4.3308368 6.584337,3.319719" id="path4555" style="fill:none;stroke:&stroke_color;;stroke-width:1px;stroke-linecap:round;stroke-linejoin:miter;stroke-opacity:1"/></g></svg>